<?xml version="1.0" encoding="utf-8"?>
<svg viewBox="0 0 500 500" xmlns="http://www.w3.org/2000/svg">
  <path style="stroke: rgb(0, 0, 0); stroke-width: 3px; fill: rgb(0, 25, 115);" d="M 146.304 134.247 L 203.857 109.486 L 259.512 87.984 L 242.436 121.215 L 232.95 164.872 L 232.95 170.736 L 198.165 186.375 L 178.559 199.407 L 141.244 224.819 L 143.774 215.697 L 146.304 134.247 Z"/>
  <path style="stroke: rgb(0, 0, 0); stroke-width: 3px; fill: rgb(0, 25, 115);" d="M 172.234 32.598 L 174.131 55.404 L 171.602 87.984 L 166.543 123.17 C 166.483 127.966 217.203 104.885 217.138 101.015 C 219.933 103.175 250.143 93.613 246.231 90.59 L 205.754 63.223 L 172.234 32.598 Z"/>
  <path style="stroke: rgb(0, 0, 0); stroke-width: 3px; fill: rgb(0, 25, 115);" d="M 422.052 154.447 L 354.38 83.422 L 265.836 87.984 L 255.718 97.107 L 244.966 116.654 L 235.48 164.872 L 231.298 208.499 L 294.929 180.511 L 370.824 168.782 L 422.052 154.447 Z" transform="matrix(0.999993, 0.003823, -0.003823, 0.999993, 0.555418, -1.249644)"/>
  <path style="stroke: rgb(0, 0, 0); stroke-width: 3px; fill: rgb(0, 25, 115);" d="M 78.632 237.2 C 81.059 234.699 145.79 147.157 145.039 147.931 C 146.389 147.931 146.824 219.607 141.877 219.607 L 103.93 280.205 L 78.632 237.2 Z"/>
  <path style="stroke: rgb(0, 0, 0); stroke-width: 3px; fill: rgb(0, 25, 115);" d="M 60.923 342.107 L 84.324 251.535 C 84.477 251.503 111.307 278.559 107.619 281.405 C 103.931 284.252 84.547 338.849 83.691 338.849 L 67.247 355.139 L 60.923 342.107 Z"/>
  <path style="stroke: rgb(0, 0, 0); stroke-width: 3px; fill: rgb(0, 25, 115);" d="M 298.724 182.466 L 299.356 230.684 C 299.356 230.684 296.195 238.503 295.562 237.2 C 294.929 235.897 286.075 243.064 286.075 243.064 L 273.426 243.064 C 273.426 243.064 248.129 200.71 251.29 200.71 C 254.453 200.71 255.718 197.452 255.718 197.452 C 257.862 191.93 299.89 179.463 298.724 182.466 Z"/>
  <path style="stroke: rgb(0, 0, 0); stroke-width: 3px; fill: rgb(0, 25, 115);" d="M 215.241 181.162 L 207.019 222.865 L 167.175 258.702 L 121.638 302.36 L 111.717 270.409 L 136.817 227.426 C 135.623 226.442 208.762 175.822 215.241 181.162 Z"/>
  <path style="stroke: rgb(0, 0, 0); stroke-width: 3px; fill: rgb(0, 25, 115);" d="M 289.238 265.218 L 313.271 288.024 L 334.774 274.341 L 332.877 245.67 L 289.238 265.218 Z"/>
  <path style="stroke: rgb(0, 0, 0); stroke-width: 3px; fill: rgb(0, 25, 115);" d="M 71.043 374.686 L 100.767 394.886 L 121.638 382.506 L 118.476 371.429 L 108.357 371.429 L 76.102 358.396 L 71.043 374.686 Z"/>
  <path style="fill: none; stroke: rgb(0, 0, 0); stroke-width: 3px;" d="M 105.827 412.479 L 104.562 435.285 L 89.384 429.421 L 90.648 402.705 L 105.827 412.479 Z"/>
  <path style="fill: none; stroke: rgb(0, 0, 0); stroke-width: 3px;" d="M 122.271 458.743 C 122.918 459.766 98.87 446.817 98.87 443.104 L 90.016 432.027 C 91.189 428.234 106.899 434.842 106.46 435.937 C 105.027 432.031 120.346 455.699 122.271 458.743 Z"/>
  <path style="stroke: rgb(0, 0, 0); stroke-width: 3px;" d="M 388.532 127.08 L 306.946 146.627 L 292.4 155.098 L 293.032 169.434 L 298.724 179.207 L 367.029 169.434 L 376.515 165.524 C 384.586 165.524 418.257 155.098 418.257 155.098 C 420.651 152.386 394.266 124.715 388.532 127.08 Z"/>
  <path style="stroke: rgb(0, 0, 0); stroke-width: 3px; fill: rgb(0, 25, 115);" d="M 175.397 287.372 L 146.936 338.197 L 138.554 307.469 L 175.397 287.372 Z"/>
  <path style="stroke: rgb(0, 0, 0); stroke-width: 3px; fill: rgb(0, 25, 115);" d="M 306.946 179.859 L 325.287 205.271 L 313.903 237.851 L 241.804 261.308 L 205.122 237.2 L 215.873 179.207 L 232.95 173.343 L 231.052 195.498 L 227.89 210.484 C 224.807 207.308 305.028 177.883 306.946 179.859 Z"/>
  <path style="stroke: rgb(0, 0, 0); stroke-width: 3px; fill: rgb(0, 25, 115);" d="M 129.228 297.146 L 136.817 306.921 L 147.569 340.803 L 119.108 344.713 L 91.281 317.346 L 103.297 284.766 L 111.519 269.779 C 112.874 269.779 121.786 305.617 121.638 305.617 L 129.228 297.146 Z"/>
  <path style="stroke: rgb(0, 0, 0); stroke-width: 3px; fill: rgb(0, 25, 115);" d="M 141.244 342.107 L 122.903 370.126 L 110.254 370.126 L 74.837 357.093 L 74.837 346.017 L 83.059 340.803 L 90.648 319.953 L 117.843 346.668 L 141.244 342.107 Z"/>
  <path style="stroke: rgb(0, 0, 0); stroke-width: 3px; fill: rgb(0, 25, 115);" d="M 124.168 422.905 L 158.321 395.538 L 127.331 394.886 L 122.271 383.809 L 100.767 394.886 L 73.572 377.293 L 65.35 424.208 L 84.324 452.878 C 84.324 452.878 117.843 458.743 118.476 458.743 C 119.108 458.743 94.443 442.453 94.443 442.453 L 90.648 420.95 L 91.281 411.827 L 93.811 404.008 L 124.168 422.905 Z"/>
  <path style="stroke: rgb(0, 0, 0); stroke-width: 3px; fill: none;" d="M 416.993 156.402 L 379.678 228.077 L 237.377 282.16 L 148.833 340.152 C 147.687 340.152 175.55 287.372 176.029 287.372 L 141.244 307.572 L 131.125 295.843 C 129.768 293.746 206.293 221.744 208.284 224.819 L 205.122 239.155 L 242.436 262.612 L 314.536 238.503 L 326.552 206.574 L 308.211 179.859 L 416.993 156.402 Z"/>
  <path d="M 315.716 152.731 C 316.747 152.711 319.53 153.095 320.459 154.36 C 321.522 155.806 321.318 159.063 321.092 161.527 C 320.851 164.156 320.087 168.379 318.879 169.673 C 318.047 170.563 316.634 170.519 315.716 170.324 C 314.859 170.141 314.106 169.771 313.503 168.695 C 312.5 166.908 311.268 161.614 311.606 158.921 C 311.885 156.685 313.626 154.293 314.451 153.383 C 314.911 152.874 315.094 152.743 315.716 152.731 Z" style="fill: rgb(0, 221, 255); stroke: rgb(0, 0, 0); stroke-width: 3px;"/>
  <path style="stroke: rgb(0, 0, 0); stroke-width: 3px; fill: rgb(255, 255, 255);" d="M 284.338 106.538 C 284.338 106.538 297.619 100.674 304.576 102.629 C 311.533 104.584 317.225 111.099 317.225 107.841 C 317.225 104.583 318.49 120.222 318.49 120.222 L 304.576 129.996 L 289.397 134.557 L 278.013 133.905 C 278.013 133.905 270.424 126.738 270.424 127.389 C 270.424 128.041 268.526 116.964 274.851 113.706 C 281.175 110.448 284.97 105.235 284.338 106.538 Z"/>
</svg>